<?xml version="1.0" encoding="UTF-8"?>
<svg id="Layer_1" data-name="Layer 1" xmlns="http://www.w3.org/2000/svg" viewBox="0 0 750 128">
  <defs>
    <style>
      .cls-1, .cls-2 {
        fill: #fff;
      }

      .cls-3 {
        fill: #2f2f2f;
      }

      .cls-2 {
        font-family: HFMonorita-Bold, 'HFMonorita Bold';
        font-size: 25px;
        font-weight: 700;
        letter-spacing: .1em;
      }
    </style>
  </defs>
  <rect class="cls-3" width="750" height="128"/>
  <text class="cls-2" transform="translate(298.06 107.04)"><tspan x="0" y="0">WareHouse</tspan></text>
  <g>
    <path class="cls-1" d="M352.85,39.35c-.32,0-.64-.07-.94-.23-1-.52-1.39-1.75-.87-2.74l12.64-24.34c.52-1,1.74-1.39,2.74-.87,1,.52,1.39,1.74,.87,2.74l-12.64,24.34c-.36,.7-1.07,1.1-1.81,1.1Z"/>
    <path class="cls-1" d="M405.32,33.5h-5.12l1.08,2.07c.96,1.85,.24,4.13-1.61,5.09-.54,.28-1.14,.43-1.74,.43-1.42,0-2.7-.78-3.35-2.04l-2.88-5.55h-32.61l-2.88,5.55c-.65,1.26-1.94,2.04-3.35,2.04-.6,0-1.2-.15-1.74-.43-1.85-.96-2.57-3.24-1.61-5.09l1.08-2.07h-5.89c-2.39,0-4.33,1.94-4.33,4.33v4.33c0,2.39,1.94,4.33,4.33,4.33l4.33,25.99h51.98l4.33-25.99c2.39,0,4.33-1.94,4.33-4.33v-4.33c0-2.39-1.94-4.33-4.33-4.33Zm-45.48,32.49c0,1.2-.97,2.17-2.17,2.17s-2.17-.97-2.17-2.17v-12.99c0-1.2,.97-2.17,2.17-2.17s2.17,.97,2.17,2.17v12.99Zm8.66,0c0,1.2-.97,2.17-2.17,2.17s-2.17-.97-2.17-2.17v-12.99c0-1.2,.97-2.17,2.17-2.17s2.17,.97,2.17,2.17v12.99Zm8.66,0c0,1.2-.97,2.17-2.17,2.17s-2.17-.97-2.17-2.17v-12.99c0-1.2,.97-2.17,2.17-2.17s2.17,.97,2.17,2.17v12.99Zm8.66,0c0,1.2-.97,2.17-2.17,2.17s-2.17-.97-2.17-2.17v-12.99c0-1.2,.97-2.17,2.17-2.17s2.17,.97,2.17,2.17v12.99Zm8.66,0c0,1.2-.97,2.17-2.16,2.17s-2.17-.97-2.17-2.17v-12.99c0-1.2,.97-2.17,2.17-2.17s2.16,.97,2.16,2.17v12.99Z"/>
    <path class="cls-1" d="M397.93,39.35c.32,0,.64-.07,.94-.23,1-.52,1.38-1.75,.87-2.74l-12.64-24.34c-.52-1-1.75-1.39-2.74-.87-1,.52-1.38,1.74-.87,2.74l12.64,24.34c.36,.7,1.07,1.1,1.81,1.1Z"/>
  </g>
</svg>